<?xml version="1.0" encoding="utf-8"?>
<!-- Generator: Adobe Illustrator 16.0.0, SVG Export Plug-In . SVG Version: 6.00 Build 0)  -->
<!DOCTYPE svg PUBLIC "-//W3C//DTD SVG 1.1//EN" "http://www.w3.org/Graphics/SVG/1.1/DTD/svg11.dtd">
<svg version="1.1" id="Layer_1" xmlns="http://www.w3.org/2000/svg" xmlns:xlink="http://www.w3.org/1999/xlink" x="0px" y="0px"
	 width="111.231px" height="19.644px" viewBox="0 0 111.231 19.644" enable-background="new 0 0 111.231 19.644"
	 xml:space="preserve">
<g>
	<path fill-rule="evenodd" clip-rule="evenodd" fill="#DC2D27" d="M20.636,19.644l-3.26-0.624l-4.309-4.904H9.524v3.628
		c0,0.907-0.737,1.616-1.616,1.616l0,0c-0.907,0-1.616-0.708-1.616-1.616v-3.628H3.175C1.417,14.116,0,12.67,0,10.941V8.702
		c0-1.757,1.417-3.175,3.175-3.175h9.893l4.309-4.904L20.636,0v5.527v8.589V19.644z"/>
	<path fill="#DC2D27" d="M28.743,12.67h-3.6V1.304h3.6V12.67z M24.718,16.214c0-0.312,0.057-0.595,0.17-0.851
		c0.113-0.283,0.284-0.51,0.482-0.708c0.198-0.198,0.425-0.369,0.708-0.482c0.255-0.113,0.539-0.17,0.851-0.17
		c0.312,0,0.595,0.057,0.878,0.17c0.255,0.113,0.51,0.284,0.709,0.482c0.198,0.199,0.34,0.425,0.454,0.708
		c0.113,0.255,0.17,0.539,0.17,0.851c0,0.312-0.057,0.595-0.17,0.879c-0.114,0.255-0.255,0.51-0.454,0.708
		c-0.199,0.199-0.454,0.34-0.709,0.454c-0.283,0.113-0.567,0.17-0.878,0.17c-0.312,0-0.595-0.057-0.851-0.17
		c-0.283-0.113-0.51-0.255-0.708-0.454c-0.198-0.198-0.369-0.454-0.482-0.708C24.775,16.809,24.718,16.526,24.718,16.214
		L24.718,16.214z M33.987,1.304h5.103l7.2,11.792h0.057V1.304h3.742v16.979h-4.904L37.786,6.179h-0.057v12.104h-3.742V1.304z
		 M51.874,1.304h4.28l4.195,11.112h0.028l4.28-11.112h3.997l-7.002,16.979h-3.004L51.874,1.304z M70.583,1.304H82.12v3.458h-7.795
		v3.146h7.37v3.458h-7.37v3.458h8.249v3.458H70.583V1.304z M93.969,5.442c-0.312-0.369-0.709-0.652-1.248-0.851
		c-0.51-0.17-0.992-0.283-1.474-0.283c-0.255,0-0.539,0.028-0.822,0.113c-0.312,0.057-0.567,0.142-0.822,0.283
		c-0.255,0.142-0.482,0.312-0.624,0.539c-0.17,0.227-0.255,0.51-0.255,0.822c0,0.51,0.198,0.907,0.595,1.19
		c0.368,0.255,0.85,0.482,1.445,0.68c0.567,0.199,1.219,0.397,1.871,0.567c0.68,0.198,1.304,0.481,1.899,0.822
		c0.567,0.369,1.049,0.822,1.445,1.417c0.397,0.595,0.567,1.389,0.567,2.381c0,0.936-0.17,1.758-0.51,2.466
		c-0.368,0.708-0.85,1.304-1.445,1.757s-1.276,0.822-2.069,1.021c-0.794,0.227-1.644,0.34-2.523,0.34
		c-1.105,0-2.126-0.17-3.062-0.51c-0.936-0.312-1.842-0.879-2.636-1.616l2.665-2.92c0.369,0.51,0.851,0.907,1.446,1.191
		c0.567,0.255,1.19,0.396,1.814,0.396c0.312,0,0.596-0.028,0.907-0.085c0.312-0.085,0.595-0.198,0.851-0.34
		c0.255-0.142,0.454-0.312,0.595-0.539c0.17-0.227,0.227-0.51,0.227-0.793c0-0.51-0.198-0.936-0.595-1.219
		c-0.369-0.284-0.879-0.539-1.474-0.766c-0.567-0.198-1.219-0.397-1.899-0.624c-0.709-0.198-1.333-0.482-1.928-0.822
		c-0.595-0.368-1.077-0.822-1.474-1.389c-0.396-0.595-0.595-1.361-0.595-2.296c0-0.907,0.17-1.701,0.539-2.41
		c0.369-0.68,0.851-1.247,1.446-1.729c0.595-0.454,1.304-0.794,2.069-1.021c0.793-0.255,1.587-0.369,2.438-0.369
		c0.964,0,1.871,0.142,2.778,0.425c0.907,0.255,1.701,0.708,2.409,1.36L93.969,5.442z M102.643,4.592h-4.847V1.304h13.436v3.288
		h-4.847v13.691h-3.742V4.592z"/>
</g>
</svg>
